<svg xmlns="http://www.w3.org/2000/svg" width="512" height="512" viewBox="0 0 512 512" role="img" aria-label="HifzDeen">
  <defs>
    <linearGradient id="g" x1="64" y1="64" x2="448" y2="448" gradientUnits="userSpaceOnUse">
      <stop offset="0" stop-color="#7ae2c2"/>
      <stop offset="1" stop-color="#1ea77c"/>
    </linearGradient>
  </defs>
  <rect x="40" y="40" width="432" height="432" rx="96" fill="#0b0f0e"/>
  <rect x="56" y="56" width="400" height="400" rx="88" fill="url(#g)" opacity="0.12"/>
  <path fill="url(#g)" d="M170 342c0-78 54-140 128-140 57 0 103 36 122 86 4 10-1 21-11 25l-18 7c-10 4-21-1-25-11-14-33-42-53-68-53-41 0-72 36-72 86v8h83c11 0 20 9 20 20v18c0 11-9 20-20 20H190c-11 0-20-9-20-20v-46z"/>
  <path fill="#e6f3ef" opacity="0.92" d="M176 170c40-42 89-64 146-64 18 0 35 2 51 6 10 2 16 12 14 22l-4 20c-2 10-12 16-22 14-13-3-26-4-39-4-41 0-76 14-104 42-8 8-21 8-29 0l-9-9c-8-8-8-21-0-29z"/>
</svg>

